{
  "accessors": [
    {
      "bufferView": 2,
      "componentType": 5126,
      "count": 29935,
      "max": [
        0.4885040521621704,
        0.11730442196130753,
        0.10973436385393143
      ],
      "min": [
        0.3423751890659332,
        -0.10250873863697052,
        -0.10973209142684937
      ],
      "type": "VEC3"
    },
    {
      "bufferView": 2,
      "byteOffset": 359220,
      "componentType": 5126,
      "count": 29935,
      "max": [
        0.999999463558197,
        0.9999980330467224,
        1.0
      ],
      "min": [
        -0.9999994039535522,
        -0.9999974966049194,
        -1.0
      ],
      "type": "VEC3"
    },
    {
      "bufferView": 1,
      "componentType": 5126,
      "count": 29935,
      "max": [
        0.9923875331878662,
        0.9923851490020752
      ],
      "min": [
        0.0,
        0.0
      ],
      "type": "VEC2"
    },
    {
      "bufferView": 0,
      "componentType": 5125,
      "count": 168000,
      "type": "SCALAR"
    },
    {
      "bufferView": 2,
      "byteOffset": 718440,
      "componentType": 5126,
      "count": 3120,
      "max": [
        0.4728585481643677,
        0.03264050558209419,
        0.025562148541212082
      ],
      "min": [
        0.4445815980434418,
        -0.018090663477778435,
        -0.02555982396006584
      ],
      "type": "VEC3"
    },
    {
      "bufferView": 2,
      "byteOffset": 755880,
      "componentType": 5126,
      "count": 3120,
      "max": [
        0.999999463558197,
        1.0,
        0.9999977946281433
      ],
      "min": [
        -0.9999994039535522,
        -0.9999896883964539,
        -0.9999978542327881
      ],
      "type": "VEC3"
    },
    {
      "bufferView": 1,
      "byteOffset": 239480,
      "componentType": 5126,
      "count": 3120,
      "max": [
        0.0,
        0.0
      ],
      "min": [
        0.0,
        0.0
      ],
      "type": "VEC2"
    },
    {
      "bufferView": 0,
      "byteOffset": 672000,
      "componentType": 5125,
      "count": 17280,
      "type": "SCALAR"
    },
    {
      "bufferView": 2,
      "byteOffset": 793320,
      "componentType": 5126,
      "count": 5080,
      "max": [
        0.4919603765010834,
        0.17202134430408478,
        0.16462518274784088
      ],
      "min": [
        0.3383106291294098,
        -0.1572241336107254,
        -0.1646229326725006
      ],
      "type": "VEC3"
    },
    {
      "bufferView": 2,
      "byteOffset": 854280,
      "componentType": 5126,
      "count": 5080,
      "max": [
        0.9997798204421997,
        0.9999969005584717,
        1.0
      ],
      "min": [
        -0.9997803568840027,
        -0.9999969601631165,
        -1.0
      ],
      "type": "VEC3"
    },
    {
      "bufferView": 3,
      "componentType": 5126,
      "count": 5080,
      "max": [
        0.9295551180839539,
        0.9996640086174011,
        0.9997148513793945,
        1.0
      ],
      "min": [
        -0.9999979138374329,
        -0.9997803568840027,
        -0.9997148513793945,
        1.0
      ],
      "type": "VEC4"
    },
    {
      "bufferView": 1,
      "byteOffset": 264440,
      "componentType": 5126,
      "count": 5080,
      "max": [
        0.40258198976516724,
        1.0001167058944702
      ],
      "min": [
        0.0518483966588974,
        -4.619360879587475e-06
      ],
      "type": "VEC2"
    },
    {
      "bufferView": 1,
      "byteOffset": 305080,
      "componentType": 5126,
      "count": 5080,
      "max": [
        0.40258198976516724,
        1.0001167058944702
      ],
      "min": [
        0.0518483966588974,
        -4.619360879587475e-06
      ],
      "type": "VEC2"
    },
    {
      "bufferView": 1,
      "byteOffset": 345720,
      "componentType": 5126,
      "count": 5080,
      "max": [
        0.40258198976516724,
        1.0001167058944702
      ],
      "min": [
        0.0518483966588974,
        -4.619360879587475e-06
      ],
      "type": "VEC2"
    },
    {
      "bufferView": 1,
      "byteOffset": 386360,
      "componentType": 5126,
      "count": 5080,
      "max": [
        0.40258198976516724,
        1.0001167058944702
      ],
      "min": [
        0.0518483966588974,
        -4.619360879587475e-06
      ],
      "type": "VEC2"
    },
    {
      "bufferView": 1,
      "byteOffset": 427000,
      "componentType": 5126,
      "count": 5080,
      "max": [
        0.40258198976516724,
        1.0001167058944702
      ],
      "min": [
        0.0518483966588974,
        -4.619360879587475e-06
      ],
      "type": "VEC2"
    },
    {
      "bufferView": 1,
      "byteOffset": 467640,
      "componentType": 5126,
      "count": 5080,
      "max": [
        0.40258198976516724,
        1.0001167058944702
      ],
      "min": [
        0.0518483966588974,
        -4.619360879587475e-06
      ],
      "type": "VEC2"
    },
    {
      "bufferView": 1,
      "byteOffset": 508280,
      "componentType": 5126,
      "count": 5080,
      "max": [
        0.40258198976516724,
        1.0001167058944702
      ],
      "min": [
        0.0518483966588974,
        -4.619360879587475e-06
      ],
      "type": "VEC2"
    },
    {
      "bufferView": 0,
      "byteOffset": 741120,
      "componentType": 5125,
      "count": 28800,
      "type": "SCALAR"
    },
    {
      "bufferView": 2,
      "byteOffset": 915240,
      "componentType": 5126,
      "count": 3504,
      "max": [
        0.4557332694530487,
        0.09294845908880234,
        0.0856364443898201
      ],
      "min": [
        0.3967973589897156,
        -0.07832079380750656,
        -0.08563417196273804
      ],
      "type": "VEC3"
    },
    {
      "bufferView": 2,
      "byteOffset": 957288,
      "componentType": 5126,
      "count": 3504,
      "max": [
        0.00020247862266842276,
        1.0,
        0.9999973773956299
      ],
      "min": [
        -0.9999990463256836,
        -0.9999886751174927,
        -0.9996533393859863
      ],
      "type": "VEC3"
    },
    {
      "bufferView": 3,
      "byteOffset": 81280,
      "componentType": 5126,
      "count": 3504,
      "max": [
        0.4597439467906952,
        0.9999875426292419,
        0.9999995231628418,
        1.0
      ],
      "min": [
        -1.0,
        -0.9999927282333374,
        -0.9999738335609436,
        1.0
      ],
      "type": "VEC4"
    },
    {
      "bufferView": 1,
      "byteOffset": 548920,
      "componentType": 5126,
      "count": 3504,
      "max": [
        0.24799390137195587,
        0.9988507032394409
      ],
      "min": [
        0.004826279357075691,
        0.001960870809853077
      ],
      "type": "VEC2"
    },
    {
      "bufferView": 1,
      "byteOffset": 576952,
      "componentType": 5126,
      "count": 3504,
      "max": [
        0.24799390137195587,
        0.9988507032394409
      ],
      "min": [
        0.004826279357075691,
        0.001960870809853077
      ],
      "type": "VEC2"
    },
    {
      "bufferView": 1,
      "byteOffset": 604984,
      "componentType": 5126,
      "count": 3504,
      "max": [
        0.24799390137195587,
        0.9988507032394409
      ],
      "min": [
        0.004826279357075691,
        0.001960870809853077
      ],
      "type": "VEC2"
    },
    {
      "bufferView": 1,
      "byteOffset": 633016,
      "componentType": 5126,
      "count": 3504,
      "max": [
        0.24799390137195587,
        0.9988507032394409
      ],
      "min": [
        0.004826279357075691,
        0.001960870809853077
      ],
      "type": "VEC2"
    },
    {
      "bufferView": 1,
      "byteOffset": 661048,
      "componentType": 5126,
      "count": 3504,
      "max": [
        0.24799390137195587,
        0.9988507032394409
      ],
      "min": [
        0.004826279357075691,
        0.001960870809853077
      ],
      "type": "VEC2"
    },
    {
      "bufferView": 1,
      "byteOffset": 689080,
      "componentType": 5126,
      "count": 3504,
      "max": [
        0.24799390137195587,
        0.9988507032394409
      ],
      "min": [
        0.004826279357075691,
        0.001960870809853077
      ],
      "type": "VEC2"
    },
    {
      "bufferView": 1,
      "byteOffset": 717112,
      "componentType": 5126,
      "count": 3504,
      "max": [
        0.24799390137195587,
        0.9988507032394409
      ],
      "min": [
        0.004826279357075691,
        0.001960870809853077
      ],
      "type": "VEC2"
    },
    {
      "bufferView": 0,
      "byteOffset": 856320,
      "componentType": 5125,
      "count": 17280,
      "type": "SCALAR"
    },
    {
      "bufferView": 2,
      "byteOffset": 999336,
      "componentType": 5126,
      "count": 8510,
      "max": [
        0.4971626102924347,
        0.03352192044258118,
        0.0260733962059021
      ],
      "min": [
        0.45361533761024475,
        -0.018977100029587746,
        -0.02607109397649765
      ],
      "type": "VEC3"
    },
    {
      "bufferView": 2,
      "byteOffset": 1101456,
      "componentType": 5126,
      "count": 8510,
      "max": [
        0.9945507645606995,
        0.9999966025352478,
        1.0
      ],
      "min": [
        -0.9999783635139465,
        -0.9999999403953552,
        -1.0
      ],
      "type": "VEC3"
    },
    {
      "bufferView": 1,
      "byteOffset": 745144,
      "componentType": 5126,
      "count": 8510,
      "max": [
        0.0,
        0.0
      ],
      "min": [
        0.0,
        0.0
      ],
      "type": "VEC2"
    },
    {
      "bufferView": 0,
      "byteOffset": 925440,
      "componentType": 5125,
      "count": 48000,
      "type": "SCALAR"
    },
    {
      "bufferView": 2,
      "byteOffset": 1203576,
      "componentType": 5126,
      "count": 29935,
      "max": [
        0.4885040521621704,
        0.11730442196130753,
        0.10973436385393143
      ],
      "min": [
        0.3423751890659332,
        -0.10250873863697052,
        -0.10973209142684937
      ],
      "type": "VEC3"
    },
    {
      "bufferView": 2,
      "byteOffset": 1562796,
      "componentType": 5126,
      "count": 29935,
      "max": [
        0.999999463558197,
        0.9999980330467224,
        1.0
      ],
      "min": [
        -0.9999994039535522,
        -0.9999974966049194,
        -1.0
      ],
      "type": "VEC3"
    },
    {
      "bufferView": 1,
      "byteOffset": 813224,
      "componentType": 5126,
      "count": 29935,
      "max": [
        0.9923875331878662,
        0.9923851490020752
      ],
      "min": [
        0.0,
        0.0
      ],
      "type": "VEC2"
    },
    {
      "bufferView": 0,
      "byteOffset": 1117440,
      "componentType": 5125,
      "count": 168000,
      "type": "SCALAR"
    },
    {
      "bufferView": 2,
      "byteOffset": 1922016,
      "componentType": 5126,
      "count": 3120,
      "max": [
        0.4728585481643677,
        0.03264050558209419,
        0.025562148541212082
      ],
      "min": [
        0.4445815980434418,
        -0.018090663477778435,
        -0.02555982396006584
      ],
      "type": "VEC3"
    },
    {
      "bufferView": 2,
      "byteOffset": 1959456,
      "componentType": 5126,
      "count": 3120,
      "max": [
        0.999999463558197,
        1.0,
        0.9999977946281433
      ],
      "min": [
        -0.9999994039535522,
        -0.9999896883964539,
        -0.9999978542327881
      ],
      "type": "VEC3"
    },
    {
      "bufferView": 1,
      "byteOffset": 1052704,
      "componentType": 5126,
      "count": 3120,
      "max": [
        0.0,
        0.0
      ],
      "min": [
        0.0,
        0.0
      ],
      "type": "VEC2"
    },
    {
      "bufferView": 0,
      "byteOffset": 1789440,
      "componentType": 5125,
      "count": 17280,
      "type": "SCALAR"
    },
    {
      "bufferView": 2,
      "byteOffset": 1996896,
      "componentType": 5126,
      "count": 5080,
      "max": [
        0.4919603765010834,
        0.17202134430408478,
        0.16462518274784088
      ],
      "min": [
        0.3383106291294098,
        -0.1572241336107254,
        -0.1646229326725006
      ],
      "type": "VEC3"
    },
    {
      "bufferView": 2,
      "byteOffset": 2057856,
      "componentType": 5126,
      "count": 5080,
      "max": [
        0.9997798204421997,
        0.9999969005584717,
        1.0
      ],
      "min": [
        -0.9997803568840027,
        -0.9999969601631165,
        -1.0
      ],
      "type": "VEC3"
    },
    {
      "bufferView": 3,
      "byteOffset": 137344,
      "componentType": 5126,
      "count": 5080,
      "max": [
        0.9295551180839539,
        0.9996640086174011,
        0.9997148513793945,
        1.0
      ],
      "min": [
        -0.9999979138374329,
        -0.9997803568840027,
        -0.9997148513793945,
        1.0
      ],
      "type": "VEC4"
    },
    {
      "bufferView": 1,
      "byteOffset": 1077664,
      "componentType": 5126,
      "count": 5080,
      "max": [
        0.40258198976516724,
        1.0001167058944702
      ],
      "min": [
        0.0518483966588974,
        -4.619360879587475e-06
      ],
      "type": "VEC2"
    },
    {
      "bufferView": 1,
      "byteOffset": 1118304,
      "componentType": 5126,
      "count": 5080,
      "max": [
        0.40258198976516724,
        1.0001167058944702
      ],
      "min": [
        0.0518483966588974,
        -4.619360879587475e-06
      ],
      "type": "VEC2"
    },
    {
      "bufferView": 1,
      "byteOffset": 1158944,
      "componentType": 5126,
      "count": 5080,
      "max": [
        0.40258198976516724,
        1.0001167058944702
      ],
      "min": [
        0.0518483966588974,
        -4.619360879587475e-06
      ],
      "type": "VEC2"
    },
    {
      "bufferView": 1,
      "byteOffset": 1199584,
      "componentType": 5126,
      "count": 5080,
      "max": [
        0.40258198976516724,
        1.0001167058944702
      ],
      "min": [
        0.0518483966588974,
        -4.619360879587475e-06
      ],
      "type": "VEC2"
    },
    {
      "bufferView": 1,
      "byteOffset": 1240224,
      "componentType": 5126,
      "count": 5080,
      "max": [
        0.40258198976516724,
        1.0001167058944702
      ],
      "min": [
        0.0518483966588974,
        -4.619360879587475e-06
      ],
      "type": "VEC2"
    },
    {
      "bufferView": 1,
      "byteOffset": 1280864,
      "componentType": 5126,
      "count": 5080,
      "max": [
        0.40258198976516724,
        1.0001167058944702
      ],
      "min": [
        0.0518483966588974,
        -4.619360879587475e-06
      ],
      "type": "VEC2"
    },
    {
      "bufferView": 1,
      "byteOffset": 1321504,
      "componentType": 5126,
      "count": 5080,
      "max": [
        0.40258198976516724,
        1.0001167058944702
      ],
      "min": [
        0.0518483966588974,
        -4.619360879587475e-06
      ],
      "type": "VEC2"
    },
    {
      "bufferView": 0,
      "byteOffset": 1858560,
      "componentType": 5125,
      "count": 28800,
      "type": "SCALAR"
    },
    {
      "bufferView": 2,
      "byteOffset": 2118816,
      "componentType": 5126,
      "count": 3504,
      "max": [
        0.4557332694530487,
        0.09294845908880234,
        0.0856364443898201
      ],
      "min": [
        0.3967973589897156,
        -0.07832079380750656,
        -0.08563417196273804
      ],
      "type": "VEC3"
    },
    {
      "bufferView": 2,
      "byteOffset": 2160864,
      "componentType": 5126,
      "count": 3504,
      "max": [
        0.00020247862266842276,
        1.0,
        0.9999973773956299
      ],
      "min": [
        -0.9999990463256836,
        -0.9999886751174927,
        -0.9996533393859863
      ],
      "type": "VEC3"
    },
    {
      "bufferView": 3,
      "byteOffset": 218624,
      "componentType": 5126,
      "count": 3504,
      "max": [
        0.4597439467906952,
        0.9999875426292419,
        0.9999995231628418,
        1.0
      ],
      "min": [
        -1.0,
        -0.9999927282333374,
        -0.9999738335609436,
        1.0
      ],
      "type": "VEC4"
    },
    {
      "bufferView": 1,
      "byteOffset": 1362144,
      "componentType": 5126,
      "count": 3504,
      "max": [
        0.24799390137195587,
        0.9988507032394409
      ],
      "min": [
        0.004826279357075691,
        0.001960870809853077
      ],
      "type": "VEC2"
    },
    {
      "bufferView": 1,
      "byteOffset": 1390176,
      "componentType": 5126,
      "count": 3504,
      "max": [
        0.24799390137195587,
        0.9988507032394409
      ],
      "min": [
        0.004826279357075691,
        0.001960870809853077
      ],
      "type": "VEC2"
    },
    {
      "bufferView": 1,
      "byteOffset": 1418208,
      "componentType": 5126,
      "count": 3504,
      "max": [
        0.24799390137195587,
        0.9988507032394409
      ],
      "min": [
        0.004826279357075691,
        0.001960870809853077
      ],
      "type": "VEC2"
    },
    {
      "bufferView": 1,
      "byteOffset": 1446240,
      "componentType": 5126,
      "count": 3504,
      "max": [
        0.24799390137195587,
        0.9988507032394409
      ],
      "min": [
        0.004826279357075691,
        0.001960870809853077
      ],
      "type": "VEC2"
    },
    {
      "bufferView": 1,
      "byteOffset": 1474272,
      "componentType": 5126,
      "count": 3504,
      "max": [
        0.24799390137195587,
        0.9988507032394409
      ],
      "min": [
        0.004826279357075691,
        0.001960870809853077
      ],
      "type": "VEC2"
    },
    {
      "bufferView": 1,
      "byteOffset": 1502304,
      "componentType": 5126,
      "count": 3504,
      "max": [
        0.24799390137195587,
        0.9988507032394409
      ],
      "min": [
        0.004826279357075691,
        0.001960870809853077
      ],
      "type": "VEC2"
    },
    {
      "bufferView": 1,
      "byteOffset": 1530336,
      "componentType": 5126,
      "count": 3504,
      "max": [
        0.24799390137195587,
        0.9988507032394409
      ],
      "min": [
        0.004826279357075691,
        0.001960870809853077
      ],
      "type": "VEC2"
    },
    {
      "bufferView": 0,
      "byteOffset": 1973760,
      "componentType": 5125,
      "count": 17280,
      "type": "SCALAR"
    },
    {
      "bufferView": 2,
      "byteOffset": 2202912,
      "componentType": 5126,
      "count": 8510,
      "max": [
        0.4971626102924347,
        0.03352192044258118,
        0.0260733962059021
      ],
      "min": [
        0.45361533761024475,
        -0.018977100029587746,
        -0.02607109397649765
      ],
      "type": "VEC3"
    },
    {
      "bufferView": 2,
      "byteOffset": 2305032,
      "componentType": 5126,
      "count": 8510,
      "max": [
        0.9945507645606995,
        0.9999966025352478,
        1.0
      ],
      "min": [
        -0.9999783635139465,
        -0.9999999403953552,
        -1.0
      ],
      "type": "VEC3"
    },
    {
      "bufferView": 1,
      "byteOffset": 1558368,
      "componentType": 5126,
      "count": 8510,
      "max": [
        0.0,
        0.0
      ],
      "min": [
        0.0,
        0.0
      ],
      "type": "VEC2"
    },
    {
      "bufferView": 0,
      "byteOffset": 2042880,
      "componentType": 5125,
      "count": 48000,
      "type": "SCALAR"
    },
    {
      "bufferView": 2,
      "byteOffset": 2407152,
      "componentType": 5126,
      "count": 29935,
      "max": [
        0.4885040521621704,
        0.11730442196130753,
        0.10973436385393143
      ],
      "min": [
        0.3423751890659332,
        -0.10250873863697052,
        -0.10973209142684937
      ],
      "type": "VEC3"
    },
    {
      "bufferView": 2,
      "byteOffset": 2766372,
      "componentType": 5126,
      "count": 29935,
      "max": [
        0.999999463558197,
        0.9999980330467224,
        1.0
      ],
      "min": [
        -0.9999994039535522,
        -0.9999974966049194,
        -1.0
      ],
      "type": "VEC3"
    },
    {
      "bufferView": 1,
      "byteOffset": 1626448,
      "componentType": 5126,
      "count": 29935,
      "max": [
        0.9923875331878662,
        0.9923851490020752
      ],
      "min": [
        0.0,
        0.0
      ],
      "type": "VEC2"
    },
    {
      "bufferView": 0,
      "byteOffset": 2234880,
      "componentType": 5125,
      "count": 168000,
      "type": "SCALAR"
    },
    {
      "bufferView": 2,
      "byteOffset": 3125592,
      "componentType": 5126,
      "count": 3120,
      "max": [
        0.4728585481643677,
        0.03264050558209419,
        0.025562148541212082
      ],
      "min": [
        0.4445815980434418,
        -0.018090663477778435,
        -0.02555982396006584
      ],
      "type": "VEC3"
    },
    {
      "bufferView": 2,
      "byteOffset": 3163032,
      "componentType": 5126,
      "count": 3120,
      "max": [
        0.999999463558197,
        1.0,
        0.9999977946281433
      ],
      "min": [
        -0.9999994039535522,
        -0.9999896883964539,
        -0.9999978542327881
      ],
      "type": "VEC3"
    },
    {
      "bufferView": 1,
      "byteOffset": 1865928,
      "componentType": 5126,
      "count": 3120,
      "max": [
        0.0,
        0.0
      ],
      "min": [
        0.0,
        0.0
      ],
      "type": "VEC2"
    },
    {
      "bufferView": 0,
      "byteOffset": 2906880,
      "componentType": 5125,
      "count": 17280,
      "type": "SCALAR"
    },
    {
      "bufferView": 2,
      "byteOffset": 3200472,
      "componentType": 5126,
      "count": 5080,
      "max": [
        0.4919603765010834,
        0.17202134430408478,
        0.16462518274784088
      ],
      "min": [
        0.3383106291294098,
        -0.1572241336107254,
        -0.1646229326725006
      ],
      "type": "VEC3"
    },
    {
      "bufferView": 2,
      "byteOffset": 3261432,
      "componentType": 5126,
      "count": 5080,
      "max": [
        0.9997798204421997,
        0.9999969005584717,
        1.0
      ],
      "min": [
        -0.9997803568840027,
        -0.9999969601631165,
        -1.0
      ],
      "type": "VEC3"
    },
    {
      "bufferView": 3,
      "byteOffset": 274688,
      "componentType": 5126,
      "count": 5080,
      "max": [
        0.9295551180839539,
        0.9996640086174011,
        0.9997148513793945,
        1.0
      ],
      "min": [
        -0.9999979138374329,
        -0.9997803568840027,
        -0.9997148513793945,
        1.0
      ],
      "type": "VEC4"
    },
    {
      "bufferView": 1,
      "byteOffset": 1890888,
      "componentType": 5126,
      "count": 5080,
      "max": [
        0.40258198976516724,
        1.0001167058944702
      ],
      "min": [
        0.0518483966588974,
        -4.619360879587475e-06
      ],
      "type": "VEC2"
    },
    {
      "bufferView": 1,
      "byteOffset": 1931528,
      "componentType": 5126,
      "count": 5080,
      "max": [
        0.40258198976516724,
        1.0001167058944702
      ],
      "min": [
        0.0518483966588974,
        -4.619360879587475e-06
      ],
      "type": "VEC2"
    },
    {
      "bufferView": 1,
      "byteOffset": 1972168,
      "componentType": 5126,
      "count": 5080,
      "max": [
        0.40258198976516724,
        1.0001167058944702
      ],
      "min": [
        0.0518483966588974,
        -4.619360879587475e-06
      ],
      "type": "VEC2"
    },
    {
      "bufferView": 1,
      "byteOffset": 2012808,
      "componentType": 5126,
      "count": 5080,
      "max": [
        0.40258198976516724,
        1.0001167058944702
      ],
      "min": [
        0.0518483966588974,
        -4.619360879587475e-06
      ],
      "type": "VEC2"
    },
    {
      "bufferView": 1,
      "byteOffset": 2053448,
      "componentType": 5126,
      "count": 5080,
      "max": [
        0.40258198976516724,
        1.0001167058944702
      ],
      "min": [
        0.0518483966588974,
        -4.619360879587475e-06
      ],
      "type": "VEC2"
    },
    {
      "bufferView": 1,
      "byteOffset": 2094088,
      "componentType": 5126,
      "count": 5080,
      "max": [
        0.40258198976516724,
        1.0001167058944702
      ],
      "min": [
        0.0518483966588974,
        -4.619360879587475e-06
      ],
      "type": "VEC2"
    },
    {
      "bufferView": 1,
      "byteOffset": 2134728,
      "componentType": 5126,
      "count": 5080,
      "max": [
        0.40258198976516724,
        1.0001167058944702
      ],
      "min": [
        0.0518483966588974,
        -4.619360879587475e-06
      ],
      "type": "VEC2"
    },
    {
      "bufferView": 0,
      "byteOffset": 2976000,
      "componentType": 5125,
      "count": 28800,
      "type": "SCALAR"
    },
    {
      "bufferView": 2,
      "byteOffset": 3322392,
      "componentType": 5126,
      "count": 3504,
      "max": [
        0.4557332694530487,
        0.09294845908880234,
        0.0856364443898201
      ],
      "min": [
        0.3967973589897156,
        -0.07832079380750656,
        -0.08563417196273804
      ],
      "type": "VEC3"
    },
    {
      "bufferView": 2,
      "byteOffset": 3364440,
      "componentType": 5126,
      "count": 3504,
      "max": [
        0.00020247862266842276,
        1.0,
        0.9999973773956299
      ],
      "min": [
        -0.9999990463256836,
        -0.9999886751174927,
        -0.9996533393859863
      ],
      "type": "VEC3"
    },
    {
      "bufferView": 3,
      "byteOffset": 355968,
      "componentType": 5126,
      "count": 3504,
      "max": [
        0.4597439467906952,
        0.9999875426292419,
        0.9999995231628418,
        1.0
      ],
      "min": [
        -1.0,
        -0.9999927282333374,
        -0.9999738335609436,
        1.0
      ],
      "type": "VEC4"
    },
    {
      "bufferView": 1,
      "byteOffset": 2175368,
      "componentType": 5126,
      "count": 3504,
      "max": [
        0.24799390137195587,
        0.9988507032394409
      ],
      "min": [
        0.004826279357075691,
        0.001960870809853077
      ],
      "type": "VEC2"
    },
    {
      "bufferView": 1,
      "byteOffset": 2203400,
      "componentType": 5126,
      "count": 3504,
      "max": [
        0.24799390137195587,
        0.9988507032394409
      ],
      "min": [
        0.004826279357075691,
        0.001960870809853077
      ],
      "type": "VEC2"
    },
    {
      "bufferView": 1,
      "byteOffset": 2231432,
      "componentType": 5126,
      "count": 3504,
      "max": [
        0.24799390137195587,
        0.9988507032394409
      ],
      "min": [
        0.004826279357075691,
        0.001960870809853077
      ],
      "type": "VEC2"
    },
    {
      "bufferView": 1,
      "byteOffset": 2259464,
      "componentType": 5126,
      "count": 3504,
      "max": [
        0.24799390137195587,
        0.9988507032394409
      ],
      "min": [
        0.004826279357075691,
        0.001960870809853077
      ],
      "type": "VEC2"
    },
    {
      "bufferView": 1,
      "byteOffset": 2287496,
      "componentType": 5126,
      "count": 3504,
      "max": [
        0.24799390137195587,
        0.9988507032394409
      ],
      "min": [
        0.004826279357075691,
        0.001960870809853077
      ],
      "type": "VEC2"
    },
    {
      "bufferView": 1,
      "byteOffset": 2315528,
      "componentType": 5126,
      "count": 3504,
      "max": [
        0.24799390137195587,
        0.9988507032394409
      ],
      "min": [
        0.004826279357075691,
        0.001960870809853077
      ],
      "type": "VEC2"
    },
    {
      "bufferView": 1,
      "byteOffset": 2343560,
      "componentType": 5126,
      "count": 3504,
      "max": [
        0.24799390137195587,
        0.9988507032394409
      ],
      "min": [
        0.004826279357075691,
        0.001960870809853077
      ],
      "type": "VEC2"
    },
    {
      "bufferView": 0,
      "byteOffset": 3091200,
      "componentType": 5125,
      "count": 17280,
      "type": "SCALAR"
    },
    {
      "bufferView": 2,
      "byteOffset": 3406488,
      "componentType": 5126,
      "count": 8510,
      "max": [
        0.4971626102924347,
        0.03352192044258118,
        0.0260733962059021
      ],
      "min": [
        0.45361533761024475,
        -0.018977100029587746,
        -0.02607109397649765
      ],
      "type": "VEC3"
    },
    {
      "bufferView": 2,
      "byteOffset": 3508608,
      "componentType": 5126,
      "count": 8510,
      "max": [
        0.9945507645606995,
        0.9999966025352478,
        1.0
      ],
      "min": [
        -0.9999783635139465,
        -0.9999999403953552,
        -1.0
      ],
      "type": "VEC3"
    },
    {
      "bufferView": 1,
      "byteOffset": 2371592,
      "componentType": 5126,
      "count": 8510,
      "max": [
        0.0,
        0.0
      ],
      "min": [
        0.0,
        0.0
      ],
      "type": "VEC2"
    },
    {
      "bufferView": 0,
      "byteOffset": 3160320,
      "componentType": 5125,
      "count": 48000,
      "type": "SCALAR"
    }
  ],
  "asset": {
    "extras": {
      "author": "jugadorjpok (https://sketchfab.com/jugadorjpok)",
      "license": "CC-BY-4.0 (http://creativecommons.org/licenses/by/4.0/)",
      "source": "https://sketchfab.com/3d-models/f1-tyres-a918304c11a342559e67eb16fdc2b942",
      "title": "f1 tyres"
    },
    "generator": "Sketchfab-15.44.0",
    "version": "2.0"
  },
  "bufferViews": [
    {
      "buffer": 0,
      "byteLength": 3352320,
      "name": "floatBufferViews",
      "target": 34963
    },
    {
      "buffer": 0,
      "byteLength": 2439672,
      "byteOffset": 3352320,
      "byteStride": 8,
      "name": "floatBufferViews",
      "target": 34962
    },
    {
      "buffer": 0,
      "byteLength": 3610728,
      "byteOffset": 5791992,
      "byteStride": 12,
      "name": "floatBufferViews",
      "target": 34962
    },
    {
      "buffer": 0,
      "byteLength": 412032,
      "byteOffset": 9402720,
      "byteStride": 16,
      "name": "floatBufferViews",
      "target": 34962
    }
  ],
  "buffers": [
    {
      "byteLength": 9814752,
      "uri": "scene.bin"
    }
  ],
  "images": [
    {
      "uri": "textures/MEDIUM_TYRE.001_baseColor.jpeg"
    },
    {
      "uri": "textures/MEDIUM_TYRE.001_metallicRoughness.png"
    },
    {
      "uri": "textures/MEDIUM_TYRE.001_normal.jpeg"
    },
    {
      "uri": "textures/BRAKES_baseColor.jpeg"
    },
    {
      "uri": "textures/BRAKES_metallicRoughness.png"
    },
    {
      "uri": "textures/BRAKES_normal.jpeg"
    },
    {
      "uri": "textures/SOFT_TYRE_baseColor.png"
    },
    {
      "uri": "textures/HARD_TYRE_baseColor.png"
    }
  ],
  "materials": [
    {
      "doubleSided": true,
      "name": "FRONT_RIM",
      "pbrMetallicRoughness": {
        "baseColorFactor": [
          0.0,
          0.0,
          0.0,
          1.0
        ],
        "metallicFactor": 0.0,
        "roughnessFactor": 0.0
      }
    },
    {
      "doubleSided": true,
      "name": "material",
      "pbrMetallicRoughness": {
        "roughnessFactor": 0.0
      }
    },
    {
      "doubleSided": true,
      "name": "MEDIUM_TYRE.001",
      "normalTexture": {
        "index": 2
      },
      "pbrMetallicRoughness": {
        "baseColorTexture": {
          "index": 0
        },
        "metallicFactor": 0.0,
        "metallicRoughnessTexture": {
          "index": 1
        }
      }
    },
    {
      "doubleSided": true,
      "name": "BRAKES",
      "normalTexture": {
        "index": 5
      },
      "pbrMetallicRoughness": {
        "baseColorTexture": {
          "index": 3
        },
        "metallicFactor": 0.3,
        "metallicRoughnessTexture": {
          "index": 4
        }
      }
    },
    {
      "doubleSided": true,
      "name": "SCREW",
      "pbrMetallicRoughness": {
        "baseColorFactor": [
          0.0348375,
          0.0348375,
          0.0348375,
          1.0
        ],
        "metallicFactor": 0.977273,
        "roughnessFactor": 0.0
      }
    },
    {
      "doubleSided": true,
      "name": "SOFT_TYRE",
      "normalTexture": {
        "index": 2
      },
      "pbrMetallicRoughness": {
        "baseColorTexture": {
          "index": 6
        },
        "metallicFactor": 0.0,
        "metallicRoughnessTexture": {
          "index": 1
        }
      }
    },
    {
      "doubleSided": true,
      "name": "HARD_TYRE",
      "normalTexture": {
        "index": 2
      },
      "pbrMetallicRoughness": {
        "baseColorTexture": {
          "index": 7
        },
        "metallicFactor": 0.0,
        "metallicRoughnessTexture": {
          "index": 1
        }
      }
    }
  ],
  "meshes": [
    {
      "name": "Object_0",
      "primitives": [
        {
          "attributes": {
            "NORMAL": 1,
            "POSITION": 0,
            "TEXCOORD_0": 2
          },
          "indices": 3,
          "material": 0,
          "mode": 4
        }
      ]
    },
    {
      "name": "Object_1",
      "primitives": [
        {
          "attributes": {
            "NORMAL": 5,
            "POSITION": 4,
            "TEXCOORD_0": 6
          },
          "indices": 7,
          "material": 1,
          "mode": 4
        }
      ]
    },
    {
      "name": "Object_2",
      "primitives": [
        {
          "attributes": {
            "NORMAL": 9,
            "POSITION": 8,
            "TANGENT": 10,
            "TEXCOORD_0": 11,
            "TEXCOORD_1": 12,
            "TEXCOORD_2": 13,
            "TEXCOORD_3": 14,
            "TEXCOORD_4": 15,
            "TEXCOORD_5": 16,
            "TEXCOORD_6": 17
          },
          "indices": 18,
          "material": 2,
          "mode": 4
        }
      ]
    },
    {
      "name": "Object_3",
      "primitives": [
        {
          "attributes": {
            "NORMAL": 20,
            "POSITION": 19,
            "TANGENT": 21,
            "TEXCOORD_0": 22,
            "TEXCOORD_1": 23,
            "TEXCOORD_2": 24,
            "TEXCOORD_3": 25,
            "TEXCOORD_4": 26,
            "TEXCOORD_5": 27,
            "TEXCOORD_6": 28
          },
          "indices": 29,
          "material": 3,
          "mode": 4
        }
      ]
    },
    {
      "name": "Object_4",
      "primitives": [
        {
          "attributes": {
            "NORMAL": 31,
            "POSITION": 30,
            "TEXCOORD_0": 32
          },
          "indices": 33,
          "material": 4,
          "mode": 4
        }
      ]
    },
    {
      "name": "Object_5",
      "primitives": [
        {
          "attributes": {
            "NORMAL": 35,
            "POSITION": 34,
            "TEXCOORD_0": 36
          },
          "indices": 37,
          "material": 0,
          "mode": 4
        }
      ]
    },
    {
      "name": "Object_6",
      "primitives": [
        {
          "attributes": {
            "NORMAL": 39,
            "POSITION": 38,
            "TEXCOORD_0": 40
          },
          "indices": 41,
          "material": 1,
          "mode": 4
        }
      ]
    },
    {
      "name": "Object_7",
      "primitives": [
        {
          "attributes": {
            "NORMAL": 43,
            "POSITION": 42,
            "TANGENT": 44,
            "TEXCOORD_0": 45,
            "TEXCOORD_1": 46,
            "TEXCOORD_2": 47,
            "TEXCOORD_3": 48,
            "TEXCOORD_4": 49,
            "TEXCOORD_5": 50,
            "TEXCOORD_6": 51
          },
          "indices": 52,
          "material": 5,
          "mode": 4
        }
      ]
    },
    {
      "name": "Object_8",
      "primitives": [
        {
          "attributes": {
            "NORMAL": 54,
            "POSITION": 53,
            "TANGENT": 55,
            "TEXCOORD_0": 56,
            "TEXCOORD_1": 57,
            "TEXCOORD_2": 58,
            "TEXCOORD_3": 59,
            "TEXCOORD_4": 60,
            "TEXCOORD_5": 61,
            "TEXCOORD_6": 62
          },
          "indices": 63,
          "material": 3,
          "mode": 4
        }
      ]
    },
    {
      "name": "Object_9",
      "primitives": [
        {
          "attributes": {
            "NORMAL": 65,
            "POSITION": 64,
            "TEXCOORD_0": 66
          },
          "indices": 67,
          "material": 4,
          "mode": 4
        }
      ]
    },
    {
      "name": "Object_10",
      "primitives": [
        {
          "attributes": {
            "NORMAL": 69,
            "POSITION": 68,
            "TEXCOORD_0": 70
          },
          "indices": 71,
          "material": 0,
          "mode": 4
        }
      ]
    },
    {
      "name": "Object_11",
      "primitives": [
        {
          "attributes": {
            "NORMAL": 73,
            "POSITION": 72,
            "TEXCOORD_0": 74
          },
          "indices": 75,
          "material": 1,
          "mode": 4
        }
      ]
    },
    {
      "name": "Object_12",
      "primitives": [
        {
          "attributes": {
            "NORMAL": 77,
            "POSITION": 76,
            "TANGENT": 78,
            "TEXCOORD_0": 79,
            "TEXCOORD_1": 80,
            "TEXCOORD_2": 81,
            "TEXCOORD_3": 82,
            "TEXCOORD_4": 83,
            "TEXCOORD_5": 84,
            "TEXCOORD_6": 85
          },
          "indices": 86,
          "material": 6,
          "mode": 4
        }
      ]
    },
    {
      "name": "Object_13",
      "primitives": [
        {
          "attributes": {
            "NORMAL": 88,
            "POSITION": 87,
            "TANGENT": 89,
            "TEXCOORD_0": 90,
            "TEXCOORD_1": 91,
            "TEXCOORD_2": 92,
            "TEXCOORD_3": 93,
            "TEXCOORD_4": 94,
            "TEXCOORD_5": 95,
            "TEXCOORD_6": 96
          },
          "indices": 97,
          "material": 3,
          "mode": 4
        }
      ]
    },
    {
      "name": "Object_14",
      "primitives": [
        {
          "attributes": {
            "NORMAL": 99,
            "POSITION": 98,
            "TEXCOORD_0": 100
          },
          "indices": 101,
          "material": 4,
          "mode": 4
        }
      ]
    }
  ],
  "nodes": [
    {
      "children": [
        1
      ],
      "matrix": [
        1.0,
        0.0,
        0.0,
        0.0,
        0.0,
        2.220446049250313e-16,
        -1.0,
        0.0,
        0.0,
        1.0,
        2.220446049250313e-16,
        0.0,
        0.0,
        0.0,
        0.0,
        1.0
      ],
      "name": "Sketchfab_model"
    },
    {
      "children": [
        2
      ],
      "name": "root"
    },
    {
      "children": [
        3
      ],
      "matrix": [
        1.0,
        0.0,
        0.0,
        0.0,
        0.0,
        2.220446049250313e-16,
        1.0,
        0.0,
        0.0,
        -1.0,
        2.220446049250313e-16,
        0.0,
        0.0,
        0.0,
        0.0,
        1.0
      ],
      "name": "GLTF_SceneRootNode"
    },
    {
      "children": [
        4
      ],
      "matrix": [
        1.0,
        0.0,
        0.0,
        0.0,
        0.0,
        2.220446049250313e-16,
        -1.0,
        0.0,
        0.0,
        1.0,
        2.220446049250313e-16,
        0.0,
        0.0,
        0.0,
        0.0,
        1.0
      ],
      "name": "Sketchfab_model_0"
    },
    {
      "children": [
        5
      ],
      "name": "root_1"
    },
    {
      "children": [
        6,
        17,
        28
      ],
      "matrix": [
        1.0,
        0.0,
        0.0,
        0.0,
        0.0,
        2.220446049250313e-16,
        1.0,
        0.0,
        0.0,
        -1.0,
        2.220446049250313e-16,
        0.0,
        0.0,
        0.0,
        0.0,
        1.0
      ],
      "name": "GLTF_SceneRootNode_2"
    },
    {
      "children": [
        7,
        9,
        11,
        13,
        15
      ],
      "matrix": [
        2.1817636489868164,
        0.0,
        0.0,
        0.0,
        0.0,
        2.1817636489868164,
        0.0,
        0.0,
        0.0,
        0.0,
        2.1817636489868164,
        0.0,
        -0.9212118983268738,
        0.2735350430011749,
        0.9092817306518555,
        1.0
      ],
      "name": "Front Wheels.002_0_3"
    },
    {
      "children": [
        8
      ],
      "name": "Object_4_4"
    },
    {
      "mesh": 0,
      "name": "Object_8"
    },
    {
      "children": [
        10
      ],
      "name": "Object_5_5"
    },
    {
      "mesh": 1,
      "name": "Object_10"
    },
    {
      "children": [
        12
      ],
      "name": "Object_6_6"
    },
    {
      "mesh": 2,
      "name": "Object_12"
    },
    {
      "children": [
        14
      ],
      "name": "Object_7_7"
    },
    {
      "mesh": 3,
      "name": "Object_14"
    },
    {
      "children": [
        16
      ],
      "name": "Object_8_8"
    },
    {
      "mesh": 4,
      "name": "Object_16"
    },
    {
      "children": [
        18,
        20,
        22,
        24,
        26
      ],
      "matrix": [
        2.1817636489868164,
        0.0,
        0.0,
        0.0,
        0.0,
        2.1817636489868164,
        0.0,
        0.0,
        0.0,
        0.0,
        2.1817636489868164,
        0.0,
        -0.9212118983268738,
        0.2735350430011749,
        1.798565149307251,
        1.0
      ],
      "name": "Front Wheels.003_1_9"
    },
    {
      "children": [
        19
      ],
      "name": "Object_10_10"
    },
    {
      "mesh": 5,
      "name": "Object_19"
    },
    {
      "children": [
        21
      ],
      "name": "Object_11_11"
    },
    {
      "mesh": 6,
      "name": "Object_21"
    },
    {
      "children": [
        23
      ],
      "name": "Object_12_12"
    },
    {
      "mesh": 7,
      "name": "Object_23"
    },
    {
      "children": [
        25
      ],
      "name": "Object_13_13"
    },
    {
      "mesh": 8,
      "name": "Object_25"
    },
    {
      "children": [
        27
      ],
      "name": "Object_14_14"
    },
    {
      "mesh": 9,
      "name": "Object_27"
    },
    {
      "children": [
        29,
        31,
        33,
        35,
        37
      ],
      "matrix": [
        2.1817636489868164,
        0.0,
        0.0,
        0.0,
        0.0,
        2.1817636489868164,
        0.0,
        0.0,
        0.0,
        0.0,
        2.1817636489868164,
        0.0,
        -0.9212118983268738,
        0.2735350430011749,
        0.03868192434310913,
        1.0
      ],
      "name": "Front Wheels.004_2_15"
    },
    {
      "children": [
        30
      ],
      "name": "Object_16_16"
    },
    {
      "mesh": 10,
      "name": "Object_30"
    },
    {
      "children": [
        32
      ],
      "name": "Object_17_17"
    },
    {
      "mesh": 11,
      "name": "Object_32"
    },
    {
      "children": [
        34
      ],
      "name": "Object_18_18"
    },
    {
      "mesh": 12,
      "name": "Object_34"
    },
    {
      "children": [
        36
      ],
      "name": "Object_19_19"
    },
    {
      "mesh": 13,
      "name": "Object_36"
    },
    {
      "children": [
        38
      ],
      "name": "Object_20_20"
    },
    {
      "mesh": 14,
      "name": "Object_38"
    }
  ],
  "samplers": [
    {
      "magFilter": 9729,
      "minFilter": 9987,
      "wrapS": 10497,
      "wrapT": 10497
    }
  ],
  "scene": 0,
  "scenes": [
    {
      "name": "Sketchfab_Scene",
      "nodes": [
        0
      ]
    }
  ],
  "textures": [
    {
      "sampler": 0,
      "source": 0
    },
    {
      "sampler": 0,
      "source": 1
    },
    {
      "sampler": 0,
      "source": 2
    },
    {
      "sampler": 0,
      "source": 3
    },
    {
      "sampler": 0,
      "source": 4
    },
    {
      "sampler": 0,
      "source": 5
    },
    {
      "sampler": 0,
      "source": 6
    },
    {
      "sampler": 0,
      "source": 7
    }
  ]
}
